<svg version="1.1" id="Layer_1" xmlns:x="ns_extend;" xmlns:i="ns_ai;" xmlns:graph="ns_graphs;" xmlns="http://www.w3.org/2000/svg" xmlns:xlink="http://www.w3.org/1999/xlink" x="0px" y="0px" viewBox="0 0 839.7 42" style="enable-background:new 0 0 839.7 42;" xml:space="preserve">
 <style type="text/css">
  .st0{fill:#FFFFFF;}
	.st1{fill-rule:evenodd;clip-rule:evenodd;fill:#E92126;}
 </style>
 <metadata>
  <sfw xmlns="ns_sfw;">
   <slices>
   </slices>
   <sliceSourceBounds bottomLeftOrigin="true" height="42" width="839.7" x="-557.6" y="3.9">
   </sliceSourceBounds>
  </sfw>
 </metadata>
 <g>
  <g>
   <path class="st0" d="M9.8,8.9v9.2h16.1v7.7H9.8v15.8H0V0.9h30.1v8H9.8z M93.8,33.6v8H67V0.9h9.8v32.7H93.8z M133.7,35.7
			c-3-4.2-4.5-9.5-4.5-14.6c0-10.7,5.7-20.8,18.2-20.8c5.7,0,10.1,1.8,13.4,6.3c3,3.9,4.5,9.8,4.5,14.6s-1.2,10.4-3.9,14
			c-3.3,4.8-8.3,6.8-14,6.8C141.7,42.3,136.9,40.2,133.7,35.7 M140.8,12.8c-0.9,2.4-1.2,6-1.2,8.3c0,5.1,0.9,13.1,7.7,13.1
			c3.3,0,5.1-1.5,6.3-4.8c0.9-2.1,1.2-5.7,1.2-8.3c0-3-0.3-6.5-1.5-9.2c-1.2-2.7-3-3.9-6-3.9C143.8,8,142,9.8,140.8,12.8
			 M250.9,41.7h-9.8l-6.8-26.8l0,0l-6.5,26.8h-9.5l-11-40.8h10.1l6.5,27.4l0,0l6.8-27.4h8.9l7.1,27.4l0,0l0.3-1.8l6.3-25.6h8
			L250.9,41.7z M422.1,41.7h-5.4V5.4h-11.9V0.9H434v4.5h-11.9V41.7z M494.7,41.7L487,24.1h-11.6v17.6H470V0.9h15.8
			c3.6,0,6.8,0.3,9.5,2.4s4.5,5.4,4.5,8.9c0,4.8-3,9.2-7.7,10.4l8.3,18.8h-5.7C494.7,41.4,494.7,41.7,494.7,41.7z M485.2,19.9
			c2.7,0,5.1-0.3,7.1-2.4c1.5-1.5,2.1-3.3,2.1-5.4c0-2.4-0.9-4.5-3-5.7c-1.8-1.2-3.6-1.2-6-1.2h-10.4v14.6L485.2,19.9L485.2,19.9z
			 M568.9,41.7h-5.4l-4.2-11.9h-15.5L540,41.7h-4.5l13.7-40.8h6L568.9,41.7L568.9,41.7z M551.6,6.3L545,25.9h12.8
			C557.8,25.9,551.6,6.3,551.6,6.3z M608.1,0.9h13.4c6,0,10.4,1.2,14.6,5.7c3.6,4.2,5.1,9.2,5.1,14.6c0,5.1-1.5,9.8-4.5,14
			c-3.3,4.5-7.7,6.5-13.4,6.5h-14.9V0.9H608.1L608.1,0.9z M621.2,37.2c4.8,0,8.6-1.2,11.6-5.1c2.1-3,3-7.1,3-11
			c0-4.2-1.2-8.6-3.9-11.9c-3-3.6-6.3-4.2-10.7-4.2h-7.7v32.1H621.2L621.2,37.2z M708.5,41.7h-27.1V0.9h26.5v4.5h-21.4v12.8h17v4.2
			h-17v14.9h22V41.7z M771.3,41.7l-7.7-17.6h-11.6v17.6h-5.4V0.9h15.8c3.6,0,6.8,0.3,9.5,2.4c2.7,2.1,4.5,5.4,4.5,8.9
			c0,4.8-3,9.2-7.7,10.4l8.3,18.8h-5.7C771.3,41.4,771.3,41.7,771.3,41.7z M761.7,19.9c2.7,0,5.1-0.3,7.1-2.4
			c1.5-1.5,2.1-3.3,2.1-5.4c0-2.4-0.9-4.5-3-5.7c-1.8-1.2-3.6-1.2-6-1.2h-10.4v14.6L761.7,19.9L761.7,19.9z M811.5,29.5
			c1.8,5.7,6.5,8.3,12.5,8.3c2.4,0,5.7-0.6,7.4-2.1c1.5-1.2,2.7-3.3,2.7-5.4c0-4.2-3.6-5.7-7.1-6.5l-6.8-1.8
			c-2.7-0.6-5.4-1.2-7.7-3.3c-2.1-1.8-3.3-4.8-3.3-7.4c0-7.7,6.8-11.3,14.3-11.3c7.1,0,12.8,3.3,14.9,9.8l-4.8,1.2
			c-0.9-4.5-6-7.1-10.4-7.1c-3.9,0-8.9,2.1-8.9,6.5s3.6,5.7,7.7,6.5l6.3,1.5c2.7,0.6,5.7,1.5,7.7,3.3c2.7,2.1,3.9,4.8,3.9,8
			c0,3.6-1.8,7.1-4.8,9.2c-3,2.4-7.1,3-11,3c-8.6,0-14.3-3.6-17-11.6L811.5,29.5L811.5,29.5z">
   </path>
   <path class="st1" d="M354.2,42h-41.7V0.3h41.7V42z">
   </path>
  </g>
 </g>
</svg>