<svg version="1.1" id="Layer_1" xmlns:x="ns_extend;" xmlns:i="ns_ai;" xmlns:graph="ns_graphs;" xmlns="http://www.w3.org/2000/svg" xmlns:xlink="http://www.w3.org/1999/xlink" x="0px" y="0px" viewBox="0 0 113.3 67.3" style="enable-background:new 0 0 113.3 67.3;" xml:space="preserve">
 <style type="text/css">
  .st0{fill:#FFFFFF;}
 </style>
 <metadata>
  <sfw xmlns="ns_sfw;">
   <slices>
   </slices>
   <sliceSourceBounds bottomLeftOrigin="true" height="67.3" width="113.3" x="-654.1" y="-214.1">
   </sliceSourceBounds>
  </sfw>
 </metadata>
 <g>
  <path class="st0" d="M110.3,14.5l-24-13.8c-1.7-1-4.5-1-6.1,0L14,38.8l36.6-28L33.2,0.7c-1.7-1-4.5-1-6.1,0l-24,13.8
		c-1.7,1-3.1,3.4-3.1,5.3v27.6c0,2,1.4,4.3,3.1,5.3l24,13.8c1.7,1,4.5,1,6.1,0l66.1-38.1l-36.6,28l17.5,10.1c1.7,1,4.5,1,6.1,0
		l24-13.8c1.7-1,3.1-3.4,3.1-5.3V19.8C113.3,17.9,112,15.5,110.3,14.5">
  </path>
 </g>
</svg>